<svg xmlns="http://www.w3.org/2000/svg" width="375.998" height="229.696" viewBox="0 0 375.998 229.696"><defs><style>.a{fill:#6ccbd6;stroke:#6ccbd6;}.b{fill:#ffb9b9;}.c{fill:#2f2e41;}.d{opacity:0.1;}.e{fill:#575a89;}.f{fill:#3f3d56;}.g{fill:#6c63ff;}.h{fill:#f2f2f2;}</style></defs><g transform="translate(0.5 -543.804)"><path class="a" d="M2001,773V659.662s5.178-117.088,48.686-104.932,17.915,58.864,55.025,41.589,98.533-55.025,173.393-51.826,44.788,38.39,65.9,41.589S2376,628.31,2376,628.31V773Z" transform="translate(-2001)"/><g transform="translate(46 636.071)"><path class="b" d="M59.271,389.273l-6.5-.433,2.166,9.749,7.366-3.033Z" transform="translate(-38.953 -287.015)"/><path class="c" d="M189.685,279.476,174.52,264.744l-8.666,6.716-17.115,20.581,1.95,3.033,20.8-14.082,14.082,18.415L199,292.691Z" transform="translate(-109.789 -195.416)"/><path class="d" d="M189.685,279.476,174.52,264.744l-8.666,6.716-17.115,20.581,1.95,3.033,20.8-14.082,14.082,18.415L199,292.691Z" transform="translate(-109.789 -195.416)"/><path class="b" d="M287.627,555.793l-1.95,1.516-15.815-5.416-3.683-1.516-7.366,1.516s0-6.066,6.933-5.849l7.149,1.733,8.449.65Z" transform="translate(-206.431 -461.984)"/><path class="c" d="M149.5,353.5l-4.766,3.033H139.1l-26.214-9.749-38.346,6.933-1.083-8.233,35.1-15.382,30.764,10.182Z" transform="translate(-54.219 -243.659)"/><path class="b" d="M291.015,438.238l-3.25.65-.708-.826a4.378,4.378,0,0,1-.592-4.807h0l9.1-11.916s2.6-5.849,6.716-3.466-3.466,6.283-3.466,6.283l-4.55,7.149.433,3.683Z" transform="translate(-226.501 -366.96)"/><circle class="b" cx="8.449" cy="8.449" r="8.449" transform="translate(76.647 40.298)"/><path class="b" d="M369.258,428.642l3.9,9.316,9.316-3.9s-3.033-7.366-3.033-7.583S369.258,428.642,369.258,428.642Z" transform="translate(-287.954 -373.721)"/><path class="e" d="M344.532,473.211a48.545,48.545,0,0,1-2.381,15.015l-.633,1.946-3.033,13.865-3.25.867-2.383-3.033-4.766-3.466-3.466-5.633-2.972-4.952-.927-1.547-3.25-16.248-12.349-6.933-4.116-.65.867-2.383,3.683-4.983,3.683-.433,1.083-.867.867.433,3.466-1.95,1.083.433,6.335.589,3.848-.806,5.533-2.97,2.266.37,7.8,6.5A48.5,48.5,0,0,1,344.532,473.211Z" transform="translate(-237.574 -390.73)"/><path class="c" d="M74.6,592.86s1.94-3.289,1.121-3.673-4.3-1.915-4.3-1.915l-5.1-1.692s-7.365-10.946-7.527-1.427,5.363,11.807,5.363,11.807,4.927,10.6,7.718,8.913,5.584-7.431,5.584-7.431S72.416,594.738,74.6,592.86Z" transform="translate(-58.78 -487.247)"/><path class="d" d="M331.63,278.453l-8.233,5.416-12.288,11.079-.927-1.547-2.6-13h.65l6.716-12.349Z" transform="translate(-227.036 -197.859)"/><path class="e" d="M296.018,263.09,289.3,275.439h-2.383l-1.516,4.333-3.466.867,9.316,10.182L304.467,278.9l8.233-5.416Z" transform="translate(-208.106 -194.195)"/><path class="c" d="M350.37,368.537l-.915.352a1.278,1.278,0,0,1-.327-1.8l-1.692-.079a12.774,12.774,0,0,1,19.071-1.537c.077-.265.917.251,1.259.774.115-.432.9,1.655,1.181,3.13.129-.491.625.3.19,1.062.275-.04.4.664.186,1.056.3-.141.25.7-.076,1.26.43-.038-3.387,5.886-4.933,9.348-.449-2.062-.953-4.233-2.4-5.769-.246-.261-.515-.5-.784-.736l-1.454-1.284c-1.691-1.493-3.229-3.335-5.482-3.893-1.548-.383-2.527-.47-1.683-2.215-.762.318-1.474.791-2.243,1.087C350.278,369.054,350.385,368.781,350.37,368.537Z" transform="translate(-271.846 -326.073)"/><circle class="b" cx="1.517" cy="1.517" r="1.517" transform="translate(87.804 48.205)"/><path class="f" d="M600.073,226.464H531.944v-1.4H501.051v1.4H432.64a4.609,4.609,0,0,0-4.609,4.609v93.291a4.609,4.609,0,0,0,4.609,4.609H600.073a4.609,4.609,0,0,0,4.609-4.608V231.072a4.608,4.608,0,0,0-4.608-4.608Z" transform="translate(-331.336 -225.059)"/><rect class="g" width="164.294" height="92.678" transform="translate(102.874 9.549)"/><circle class="g" cx="1.685" cy="1.685" r="1.685" transform="translate(183.195 3.651)"/><path class="d" d="M510.153,129.142H392.845V36.464Z" transform="translate(-289.971 -26.915)"/><circle class="h" cx="15.792" cy="15.792" r="15.792" transform="translate(112.788 63.707)"/><path class="f" d="M507.847,463.229a19.644,19.644,0,1,1,19.644-19.644A19.644,19.644,0,0,1,507.847,463.229Zm0-39.032a19.387,19.387,0,1,0,19.387,19.387A19.387,19.387,0,0,0,507.847,424.2Z" transform="translate(-375.75 -371.86)"/><rect class="f" width="15.347" height="3.207" transform="translate(223.214 59.531)"/><rect class="f" width="52.454" height="1.374" transform="translate(204.661 34.564)"/><rect class="f" width="52.454" height="1.374" transform="translate(204.661 38.916)"/><rect class="f" width="52.454" height="1.374" transform="translate(204.661 43.268)"/><rect class="f" width="52.454" height="1.374" transform="translate(204.661 47.62)"/><rect class="f" width="52.454" height="1.374" transform="translate(204.661 51.972)"/><rect class="h" width="6.414" height="6.414" transform="translate(250.701 11.429)"/><path class="f" d="M1030.048,282.614h-7.788v-7.788h7.788Zm-7.45-.339h7.111v-7.111H1022.6Z" transform="translate(-769.956 -261.794)"/><path class="f" d="M589.505,605.1H573.471v-1.155a.229.229,0,0,0-.229-.229h-5.5a.229.229,0,0,0-.229.229V605.1h-3.438v-1.155a.229.229,0,0,0-.229-.229h-5.5a.229.229,0,0,0-.229.229V605.1h-3.435v-1.155a.229.229,0,0,0-.229-.229h-5.5a.229.229,0,0,0-.229.229V605.1H545.3v-1.155a.229.229,0,0,0-.229-.229h-5.5a.229.229,0,0,0-.229.229V605.1H535.9v-1.155a.229.229,0,0,0-.229-.229h-5.5a.229.229,0,0,0-.229.229V605.1h-3.436v-1.155a.229.229,0,0,0-.229-.229h-5.5a.229.229,0,0,0-.229.229V605.1h-3.436v-1.155a.229.229,0,0,0-.229-.229H473.83a.229.229,0,0,0-.229.229V605.1h-3.436v-1.155a.229.229,0,0,0-.229-.229h-5.5a.229.229,0,0,0-.229.229V605.1h-3.436v-1.155a.229.229,0,0,0-.229-.229h-5.5a.229.229,0,0,0-.229.229V605.1h-3.436v-1.155a.229.229,0,0,0-.229-.229h-5.5a.229.229,0,0,0-.229.229V605.1h-3.436v-1.155a.229.229,0,0,0-.229-.229h-5.5a.229.229,0,0,0-.229.229V605.1H432.6v-1.155a.229.229,0,0,0-.229-.229h-5.5a.229.229,0,0,0-.229.229V605.1h-3.436v-1.155a.229.229,0,0,0-.229-.229h-5.5a.229.229,0,0,0-.229.229V605.1H406.716a5.5,5.5,0,0,0-5.5,5.5v2.486a5.5,5.5,0,0,0,5.5,5.5H589.505a5.5,5.5,0,0,0,5.5-5.5V610.6A5.5,5.5,0,0,0,589.505,605.1Z" transform="translate(-311.545 -504.557)"/></g></g></svg>