<svg xmlns="http://www.w3.org/2000/svg" width="593.198" height="521" viewBox="0 0 593.198 521">
  <g id="Group_29" data-name="Group 29" transform="translate(-95.907 -596)">
    <ellipse id="Ellipse_10" data-name="Ellipse 10" cx="262" cy="260.5" rx="262" ry="260.5" transform="translate(132 596)" fill="#6ccbd6"/>
    <g id="Group_24" data-name="Group 24" transform="translate(95.907 710.811)">
      <g id="undraw_developer_activity_bv83">
        <rect id="Rectangle_63" data-name="Rectangle 63" width="16.342" height="16.342" transform="translate(377.487 9.41)" fill="#6ccbd6"/>
        <rect id="Rectangle_64" data-name="Rectangle 64" width="16.342" height="16.342" transform="translate(399.819 9.41)" fill="#6ccbd6" opacity="0.2"/>
        <rect id="Rectangle_88" data-name="Rectangle 88" width="16.342" height="16.342" transform="translate(355.149 30.109)" fill="#6ccbd6" opacity="0.4"/>
        <rect id="Rectangle_89" data-name="Rectangle 89" width="16.342" height="16.342" transform="translate(377.487 30.109)" fill="#6ccbd6" opacity="0.2"/>
        <rect id="Rectangle_90" data-name="Rectangle 90" width="16.342" height="16.342" transform="translate(399.819 30.109)" fill="#6ccbd6" opacity="0.2"/>
        <rect id="Rectangle_91" data-name="Rectangle 91" width="16.342" height="16.342" transform="translate(422.158 30.109)" fill="#6ccbd6" opacity="0.2"/>
        <rect id="Rectangle_114" data-name="Rectangle 114" width="16.342" height="16.342" transform="translate(355.149 50.814)" fill="#6ccbd6"/>
        <rect id="Rectangle_115" data-name="Rectangle 115" width="16.342" height="16.342" transform="translate(377.487 50.814)" fill="#6ccbd6" opacity="0.2"/>
        <rect id="Rectangle_116" data-name="Rectangle 116" width="16.342" height="16.342" transform="translate(399.819 50.814)" fill="#6ccbd6" opacity="0.2"/>
        <rect id="Rectangle_117" data-name="Rectangle 117" width="16.342" height="16.342" transform="translate(422.158 50.814)" fill="#6ccbd6" opacity="0.2"/>
        <rect id="Rectangle_140" data-name="Rectangle 140" width="16.342" height="16.342" transform="translate(355.149 71.512)" fill="#6ccbd6" opacity="0.2"/>
        <rect id="Rectangle_141" data-name="Rectangle 141" width="16.342" height="16.342" transform="translate(377.487 71.512)" fill="#6ccbd6" opacity="0.2"/>
        <rect id="Rectangle_142" data-name="Rectangle 142" width="16.342" height="16.342" transform="translate(399.819 71.512)" fill="#6ccbd6" opacity="0.2"/>
        <rect id="Rectangle_143" data-name="Rectangle 143" width="16.342" height="16.342" transform="translate(422.158 71.512)" fill="#6ccbd6" opacity="0.2"/>
        <rect id="Rectangle_167" data-name="Rectangle 167" width="16.342" height="16.342" transform="translate(377.487 92.217)" fill="#6ccbd6" opacity="0.2"/>
        <rect id="Rectangle_168" data-name="Rectangle 168" width="16.342" height="16.342" transform="translate(399.819 92.217)" fill="#6ccbd6" opacity="0.2"/>
        <rect id="Rectangle_169" data-name="Rectangle 169" width="16.342" height="16.342" transform="translate(422.158 92.217)" fill="#6ccbd6" opacity="0.2"/>
        <rect id="Rectangle_170" data-name="Rectangle 170" width="16.342" height="16.342" transform="translate(444.49 92.217)" fill="#6ccbd6" opacity="0.2"/>
        <circle id="Ellipse_1" data-name="Ellipse 1" cx="22.339" cy="22.339" r="22.339" transform="translate(378.365 107.663)" fill="#767d9f"/>
        <path id="Path_7" data-name="Path 7" d="M760.389,451.275q3.344,14.594,5.676,29.4c.468,2.934.884,6.028-.179,8.8-.891,2.313-2.7,4.119-4.125,6.143s-2.5,4.619-1.634,6.938,3.388,3.587,5.8,4.241c6.893,1.858,14.241.506,21.1-1.505a34.147,34.147,0,0,0,8.847-3.664,33.111,33.111,0,0,0,7.482-7.047c10-12.127,16.548-26.682,22.71-41.147a25.061,25.061,0,0,1-21.211-8.546c-2.524-2.966-4.375-7.1-2.953-10.724-4.171,2.287-9.123,2.441-13.613,4a48.368,48.368,0,0,0-8.008,3.94q-4.6,2.659-9.148,5.42C767.667,449.622,764.418,451.48,760.389,451.275Z" transform="translate(-360.845 -349.692)" fill="#eba4b0"/>
        <path id="Path_8" data-name="Path 8" d="M779.629,475.484c-3.914,7.617-9.007,14.939-16.278,19.475s-17.06,5.766-24.344,1.281c-3.587-2.191-6.3-5.522-9.436-8.328s-7.047-5.208-11.256-4.843c-4.638.4-8.27,4.023-11.377,7.489-4.715,5.266-9.27,10.756-12.607,16.989-6.406,11.98-7.925,25.984-7.643,39.565s2.249,27.092,2.293,40.673c.064,16.708-2.768,33.281-5.631,49.738,26.33-3.242,52.691,3.844,79.078,6.528,16.887,1.736,33.9,1.7,50.878,1.653,2.985,0,6.163-.077,8.648-1.73a11.656,11.656,0,0,0,3.581-4.254c2.344-4.324,3.286-9.257,3.94-14.132,1.659-12.313,1.71-24.779,1.755-37.207.116-30.109.224-60.327-3.6-90.2-.942-7.348-2.146-14.734-4.965-21.608s-7.419-13.2-13.851-16.88c-4.132-2.37-13.709-6.5-18.578-4.106C784.774,458.251,782.25,470.384,779.629,475.484Z" transform="translate(-333.365 -357.129)" fill="#767d9f"/>
        <path id="Path_9" data-name="Path 9" d="M833.545,557.552c-.993-18.578-5.035-38.405,3.568-54.895,2.114-4.049-5.471-9.1-3.127-13.024a58.985,58.985,0,0,0,6.445-15.33,11.559,11.559,0,0,0,.417-5.67c-.852-3.389-4.2-5.407-7.047-7.469-3.139-2.281-4.753-9.232-5.765-12.992s8.053.769,11.7-.57c5.061-1.851,11.493-.686,16.541,1.192a27.611,27.611,0,0,0,8.886,1.2,117.056,117.056,0,0,0,17.482-.417,43.483,43.483,0,0,1,7.822-.673c6.669.378,12.467,4.939,16.413,10.333s6.458,11.678,9.693,17.521c2.7,4.869,5.913,9.468,8.213,14.536a89.5,89.5,0,0,1,4.6,14.094l3.286,12.294a16.4,16.4,0,0,1,.807,5.452,15.471,15.471,0,0,1-1.922,5.548,105.15,105.15,0,0,1-11.96,18.251c-6.912,8.475-15.3,16.118-19.411,26.266a66.339,66.339,0,0,0-3.305,12.345,453.544,453.544,0,0,0-6.983,50.705,111.592,111.592,0,0,0-23.4-7.822,113.773,113.773,0,0,0-12.172-1.922c-3.581-.371-8.2.333-11.608-.641-5.7-1.621-6.33-11.262-7.194-16.31a148.968,148.968,0,0,1-1.711-24.344C833.75,575.977,834.039,566.758,833.545,557.552Z" transform="translate(-385.333 -354.174)" fill="#4c4981"/>
        <path id="Path_10" data-name="Path 10" d="M610.2,560.688c2.7,15.375,5.669,30.795,11.531,45.241-.147.141-.3.269-.442.4-.519.442-1.057.858-1.621,1.281a21.575,21.575,0,0,0-3.844,2.908,5.127,5.127,0,0,0-.961,1.569,3.511,3.511,0,0,0,0,2.864c-3.056,1.352-6.6.935-10.032.807-2.953-.109-5.817,0-8.187,1.621-3.293,2.268-4.286,6.624-4.817,10.583q-.295,2.166-.506,4.337-.2,2.018-.333,4.049a120.845,120.845,0,0,0-.122,13.453q.051,1.23.135,2.46c-10.468-.25-20.007-5.708-29.033-11.012-2.063-1.211-4.19-2.486-5.529-4.484a10.124,10.124,0,0,1-1.48-6.592,7.307,7.307,0,0,1,.1-.974,26.639,26.639,0,0,1,1.467-5.561,68.681,68.681,0,0,1,12.294-20.916c2.293-2.678,4.875-5.3,5.945-8.661.468-1.467.641-3.024,1.115-4.484,2.126-6.329,9.8-9.321,12.428-15.464a46.954,46.954,0,0,1,1.73-4.485,11.293,11.293,0,0,1,2.723-3.043c.468-.391.954-.769,1.435-1.147q6.752-5.291,13.011-11.179,1.166-1.1,2.306-2.217a38.1,38.1,0,0,0,.686,8.649Z" transform="translate(-287.198 -392.051)" fill="#4c4981"/>
        <path id="Path_11" data-name="Path 11" d="M705.419,486.729c-.922.974-1.922,1.89-2.9,2.8l-.263.237-1.038.961a24.993,24.993,0,0,0-4.837,5.631l-.109.179c-3.268,5.849-2.056,13.05-1.147,19.693a167.587,167.587,0,0,1,1.519,24.984c-.167,11.531-1.525,22.985-1.551,34.5,0,2.614.058,5.221.173,7.835.186,4.247.506,8.488.891,12.729.416,4.651.916,9.3,1.384,13.94.372,3.594.724,7.181,1.019,10.769.147,1.858.288,3.709.4,5.567.135,2.178.243,4.363.308,6.541h0c.045,1.384.071,2.761.071,4.145v2.351q0,2.249-.122,4.485-.128,2.876-.391,5.765c-.2,2.095-.551,4.382-2.024,5.855-.09.089-.186.173-.282.256l-2.075-.256a213.147,213.147,0,0,0-43.114-.769c.314-2.165.6-4.324.884-6.5.128-1.025.256-2.057.378-3.088q.211-1.768.4-3.536.221-1.922.41-3.844.5-4.952.878-9.91.558-7.232.846-14.491.141-3.465.218-6.938.109-4.3.1-8.616,0-4.189-.071-8.392c0-.922-.039-1.845-.115-2.761a17.524,17.524,0,0,0-.34-2.453A31.954,31.954,0,0,0,653,578.973c-.141-.333-.276-.641-.41-.993-.077-.173-.147-.352-.218-.525,3.69-3.286,6.317-7.687,8.841-12.018,4.094-6.976,8.283-14.26,8.969-22.319s-3.319-17.111-11.019-19.571a53.552,53.552,0,0,0-6.47-1.2c-2.037-.359-6.285-1.172-8.642-2.633q-1.922,1.973-3.844,3.876a14.2,14.2,0,0,1,1.39-5.58l.91.045a1.746,1.746,0,0,1-.1-.641,3.367,3.367,0,0,1,1.486-2.319c3.017-2.563,7.764-3.133,9.667-6.6.794-1.441.929-3.158,1.57-4.67,1.839-4.311,7.117-5.9,10.295-9.347s3.972-8.328,6.541-12.172a18.334,18.334,0,0,1,7.688-6.406c.256-.122.519-.244.781-.353,5.318-2.274,11.634-2.793,17.143-2.78,2.14,0,7.688.064,10.4,1.147a3.41,3.41,0,0,1,1.185.724C712.063,477.792,707.559,484.449,705.419,486.729Z" transform="translate(-317.861 -363.563)" fill="#4c4981"/>
        <path id="Path_12" data-name="Path 12" d="M635.992,541.761a39,39,0,0,1,29.943,3.12,28.326,28.326,0,0,1,11.288,10.75c3.812,6.919,3.645,15.26,3.376,23.159-.134,3.952-.307,8.046-2.05,11.6-2.018,4.107-5.823,6.925-9.706,9.231a27.068,27.068,0,0,1-7.892,3.415c-4.3.935-8.777.141-13.114-.641-4.715-.871-9.776-1.922-13.05-5.432-1.922-2.037-2.973-4.683-4.01-7.271q-2.236-5.606-4.484-11.2c-2.595-6.477-3.472-11.864-.045-18.175,1.557-2.876,3.459-5.567,5-8.463C632.014,550.378,634.769,542.139,635.992,541.761Z" transform="translate(-312.036 -387.763)" fill="#4c4981"/>
        <path id="Path_13" data-name="Path 13" d="M730.228,694.379v19.154a107.172,107.172,0,0,1-41.467,8.2H515.991c-.09.09-.186.173-.282.256l-2.076-.256H206.307a133.868,133.868,0,0,1-69.277-18.809V673.68l147.8-17.06h.115l86.074,7.29,22.274,1.922,11.57.98,23.947,2.031,12.319,1.044,17.938,1.525,2.524.211,12.928,1.1,17.54,1.441,24.664,2.089,41.115,3.491,28.924,2.453,47.5,4.03,9.033.762.974.083.846.07,11.929,1.012,13.094,1.115,1.518.128Z" transform="translate(-137.03 -429.635)" fill="#504f60"/>
        <path id="Path_14" data-name="Path 14" d="M656.061,555.385,470.832,523.77l-7.181,36.317,84.908,10.167,26.144,3.273,71.916-14.164Z" transform="translate(-236.472 -291.346)" fill="#9c9ca1"/>
        <path id="Path_15" data-name="Path 15" d="M642.33,730.122l92.8-17.444a3.2,3.2,0,0,1,3.805,3.158h0a3.2,3.2,0,0,1-2.62,3.158l-90.629,16.97Z" transform="translate(-318.623 -449.76)" fill="#9c9ca1"/>
        <path id="Path_16" data-name="Path 16" d="M664.654,647.351a23.925,23.925,0,0,0,8.418-2.005c3.2-1.6,5.7-4.343,8.661-6.368,6.521-4.484,15.247-5.086,22.723-2.511s13.715,8.091,18.085,14.677c2.9,4.388,5.08,9.987,3.03,14.83a19.538,19.538,0,0,1-2.64,4.126l-5.343,6.983a18.571,18.571,0,0,1-3.626,3.9,15.412,15.412,0,0,1-6.932,2.409c-6.5.948-13.12.41-19.674.846-11.256.749-22.249,4.375-33.53,4.254-6.483-.071-12.883-1.377-19.219-2.684l-28.04-5.766c-4.881-1-10.4-2.46-12.7-6.887a15.962,15.962,0,0,1-1.345-6.541c-.333-6.176,0-13.043,4.279-17.5,4.023-4.177,10.384-5.5,15.189-8.585,5.881-3.786,7.822-2.562,14.023.282a76.874,76.874,0,0,0,38.636,6.534Z" transform="translate(-300.69 -421.845)" fill="#eba4b0"/>
        <path id="Path_17" data-name="Path 17" d="M664.654,647.351a23.925,23.925,0,0,0,8.418-2.005c3.2-1.6,5.7-4.343,8.661-6.368,6.521-4.484,15.247-5.086,22.723-2.511s13.715,8.091,18.085,14.677c2.9,4.388,5.08,9.987,3.03,14.83a19.538,19.538,0,0,1-2.64,4.126l-5.343,6.983a18.571,18.571,0,0,1-3.626,3.9,15.412,15.412,0,0,1-6.932,2.409c-6.5.948-13.12.41-19.674.846-11.256.749-22.249,4.375-33.53,4.254-6.483-.071-12.883-1.377-19.219-2.684l-28.04-5.766c-4.881-1-10.4-2.46-12.7-6.887a15.962,15.962,0,0,1-1.345-6.541c-.333-6.176,0-13.043,4.279-17.5,4.023-4.177,10.384-5.5,15.189-8.585,5.881-3.786,7.822-2.562,14.023.282a76.874,76.874,0,0,0,38.636,6.534Z" transform="translate(-300.69 -421.845)" opacity="0.05"/>
        <path id="Path_18" data-name="Path 18" d="M787.885,638.761c-7.867,3.043-15.779,6.1-24.017,7.911-13.812,3.043-28.264,2.563-41.967,6.041-7.239,1.845-14.433,4.818-21.871,4.215a65.623,65.623,0,0,1-9.77-2.05c-18.174-4.484-38.835-3.03-53.595,8.5a66.7,66.7,0,0,0-12.928,14.094,9.417,9.417,0,0,0,3.786,14.017,55.5,55.5,0,0,0,18.181,4.85c8.412.743,16.861-.449,25.228-1.64,12.415-1.762,24.837-3.53,37.22-5.51,4.446-.711,8.892-1.448,13.363-2.011,32.178-4.068,64.94.878,97.2-2.518a29.7,29.7,0,0,0,9.545-2.184c7.508-3.523,11.224-12.812,9.674-20.974s-7.534-14.946-14.735-19.11c-6.034-3.5-12.543-4.92-19.264-6.406C797.7,634.533,793.894,636.454,787.885,638.761Z" transform="translate(-311.318 -422.038)" fill="#eba4b0"/>
        <path id="Path_19" data-name="Path 19" d="M941.592,549.114c3.549,4.651,4.305,10.891,3.921,16.714s-1.768,11.583-1.973,17.432c-.282,8.021,1.653,16.015,1.326,24.01a69.063,69.063,0,0,1-3.126,16.445c-1.851,6.336-4.529,13.145-10.378,16.189-7.764,4.042-24.049,1.768-32.217,4.932.743-4.632,7.867-11.339,8.61-15.971.513-3.2,1.032-6.5.481-9.705-.7-4.094-3.107-7.726-5.958-10.75a31.435,31.435,0,0,0-16.958-9.609c-6.5-1.179-22.421-.212-27.623,3.895-.641-4.241,11.275-8.328,15.465-9.244,2.089-.468,4.484-.205,6.156-1.531,3.2-2.511.878-7.515,1.031-11.531.122-3.2,1.992-6.137,2.37-9.34.641-5.125-2.7-10.346-1.39-15.375a39.871,39.871,0,0,1,2.319-5.259c2.281-5.413,1.281-11.589.064-17.342-.756-3.613-1.493-7.687.519-10.769,1.865-2.876,7.156,7.367,10.545,6.893,11.192-1.569,21.32-9.866,30.359-3.075,4.606,3.459,5.208,7.047,7.047,11.986C933.969,542.81,938.6,545.219,941.592,549.114Z" transform="translate(-396.012 -381.181)" opacity="0.1"/>
        <path id="Path_20" data-name="Path 20" d="M944.592,546.684c3.55,4.651,4.305,10.89,3.921,16.714s-1.768,11.583-1.973,17.432c-.282,8.02,1.653,16.015,1.326,24.01a69.078,69.078,0,0,1-3.126,16.445c-1.851,6.336-4.529,13.146-10.378,16.188-7.764,4.042-24.049,1.768-32.217,4.933.743-4.632,7.867-11.339,8.61-15.971.513-3.2,1.032-6.5.481-9.706-.7-4.093-3.107-7.726-5.958-10.75a31.433,31.433,0,0,0-16.958-9.609c-6.5-1.179-22.422-.211-27.623,3.9-.641-4.241,11.275-8.328,15.465-9.244,2.088-.468,4.484-.2,6.156-1.531,3.2-2.511.877-7.514,1.031-11.531.122-3.2,1.992-6.137,2.37-9.34.64-5.125-2.7-10.346-1.39-15.375a39.844,39.844,0,0,1,2.319-5.26c2.281-5.413,1.281-11.589.064-17.342-.755-3.613-1.492-7.687.519-10.769,1.864-2.877,5.509-3.966,8.9-4.446a43.83,43.83,0,0,1,32.031,8.264c4.606,3.459,5.208,7.047,7.047,11.986C936.969,540.38,941.6,542.789,944.592,546.684Z" transform="translate(-397.09 -378.752)" fill="#4c4981"/>
        <path id="Path_21" data-name="Path 21" d="M329.842,504.933,364.673,633.66a8.039,8.039,0,0,0,6.989,5.9l156.773,15.061a8.034,8.034,0,0,0,8.572-9.917L498.865,489.429a8.034,8.034,0,0,0-8.405-6.092l-153.487,11.48a8.033,8.033,0,0,0-7.13,10.115Z" transform="translate(-206.221 -367.353)" fill="#9c9ca1"/>
        <path id="Path_27" data-name="Path 27" d="M775.2,401.33c0,25.772-17.636,50.609-43.409,50.609a46.669,46.669,0,1,1,0-93.339C757.562,358.626,775.2,375.551,775.2,401.33Z" transform="translate(-334.001 -322.534)" opacity="0.1"/>
        <circle id="Ellipse_5" data-name="Ellipse 5" cx="46.669" cy="46.669" r="46.669" transform="translate(351.119 34.811)" fill="#eba4b0"/>
        <path id="Path_28" data-name="Path 28" d="M716.747,363.1c5.554,2.044,8.841,7.784,13.825,10.98,7.047,4.485,16.22,3.325,24.267,1.108,4.484-1.224,9.174-2.716,13.587-1.358a3.846,3.846,0,0,0,2.07.295c.96-.276,1.435-1.339,1.749-2.287,5.458-16.272,3-34.7-5.234-49.757-2.127-3.882-4.677-7.636-8.187-10.333a34.15,34.15,0,0,0-9.3-4.7,92.9,92.9,0,0,0-18.5-4.568,11.5,11.5,0,0,0-3.376-.109,14.136,14.136,0,0,0-4.305,1.826,44.061,44.061,0,0,1-19.129,5.2c-8.969.339-19.219-1.775-26.131,3.978-8.328,6.9-6.253,20.359-11.653,29.725-3.574,6.195-10.468,10.692-11.6,17.745a16.377,16.377,0,0,0,.4,6.451,26.25,26.25,0,0,0,24.344,19.456,9.237,9.237,0,0,0,4.971-1.019,11.249,11.249,0,0,0,2.62-2.492C694.5,374.556,702.891,358,716.747,363.1Z" transform="translate(-323.059 -302.301)" fill="#444053"/>
        <path id="Path_29" data-name="Path 29" d="M772.234,394.521c-.314.948-.788,2.012-1.749,2.287a3.842,3.842,0,0,1-2.069-.295c-4.414-1.358-9.129.135-13.582,1.358-8.053,2.217-17.246,3.4-24.267-1.108-4.99-3.2-8.271-8.969-13.831-10.98-13.857-5.125-22.249,11.454-29.6,20.141a11.237,11.237,0,0,1-2.62,2.492,9.24,9.24,0,0,1-4.971,1.019A26.319,26.319,0,0,1,655.2,389.979c-.147-.641-.275-1.281-.372-1.922a.313.313,0,0,1-.032.167,16.377,16.377,0,0,0,.4,6.451,26.257,26.257,0,0,0,24.344,19.456,9.239,9.239,0,0,0,4.971-1.019,11.238,11.238,0,0,0,2.62-2.492c7.354-8.687,15.747-25.241,29.6-20.141,5.561,2.044,8.841,7.783,13.831,10.98,7.047,4.484,16.214,3.325,24.267,1.108,4.484-1.224,9.167-2.716,13.581-1.358a3.846,3.846,0,0,0,2.069.295c.961-.276,1.435-1.339,1.749-2.287a57.839,57.839,0,0,0,2.87-20.667A56.884,56.884,0,0,1,772.234,394.521Z" transform="translate(-323.048 -329.703)" opacity="0.1"/>
      </g>
    </g>
  </g>
</svg>
